<?xml version="1.0" encoding="utf-8"?>
<svg id="master-artboard" viewBox="0 0 64 64" version="1.1" xmlns="http://www.w3.org/2000/svg" x="0px" y="0px" style="enable-background:new 0 0 1400 980;" width="64px" height="64px">
   
    <path d="M 12.600000381469727 -1.6900005340576172 C 13.15999984741211 -1.6900005340576172 13.803333282470703 -1.5866661071777344 14.529999732971191 -1.3799991607666016 C 15.256667137145996 -1.166666030883789 15.84666633605957 -0.823333740234375 16.299999237060547 -0.35000038146972656 C 16.606666564941406 -0.06999969482421875 16.56333351135254 0.013334274291992188 16.170000076293945 -0.10000038146972656 C 15.776666641235352 -0.1533336639404297 15.376667022705078 -0.2433338165283203 14.970000267028809 -0.37000083923339844 C 14.563333511352539 -0.49666595458984375 14.123332977294922 -0.5599994659423828 13.649999618530273 -0.5599994659423828 C 11.916666984558105 -0.5866661071777344 10.65666675567627 -0.09000015258789062 9.869999885559082 0.9300003051757812 C 9.083333015441895 1.9500007629394531 8.636666297912598 3.2466659545898438 8.529999732971191 4.819999694824219 C 8.443333625793457 5.906665802001953 8.463333129882812 6.989999771118164 8.59000015258789 8.069999694824219 C 8.716666221618652 9.149999618530273 8.863333702087402 10.219999313354492 9.029999732971191 11.280000686645508 C 9.196666717529297 12.34666633605957 9.34333324432373 13.41333293914795 9.470000267028809 14.479999542236328 C 9.59666633605957 15.539999961853027 9.603333473205566 16.616666793823242 9.489999771118164 17.709999084472656 C 9.463333129882812 18.016666412353516 9.430000305175781 18.200000762939453 9.390000343322754 18.260000228881836 C 9.34333324432373 18.31333351135254 9.300000190734863 18.296667098999023 9.260000228881836 18.209999084472656 C 9.220000267028809 18.130001068115234 9.176666259765625 18.01333236694336 9.130000114440918 17.860000610351562 C 9.09000015258789 17.706666946411133 9.056666374206543 17.573333740234375 9.029999732971191 17.459999084472656 C 8.863333702087402 16.34000015258789 8.65333366394043 15.213333129882812 8.399999618530273 14.079999923706055 C 8.146666526794434 12.946666717529297 7.909999847412109 11.803333282470703 7.690000057220459 10.649999618530273 C 7.4633331298828125 9.503334045410156 7.2866668701171875 8.356666564941406 7.159999847412109 7.209999084472656 C 7.0333333015441895 6.063333511352539 7.026666641235352 4.899999618530273 7.139999866485596 3.719999313354492 C 7.226666450500488 2.9666671752929688 7.409999847412109 2.260000228881836 7.690000057220459 1.6000003814697266 C 7.96999979019165 0.9466667175292969 8.34000015258789 0.3733329772949219 8.800000190734863 -0.12000083923339844 C 9.260000228881836 -0.6066665649414062 9.813333511352539 -0.9899997711181641 10.460000038146973 -1.2700004577636719 C 11.100000381469727 -1.5499992370605469 11.813333511352539 -1.6900005340576172 12.600000381469727 -1.6900005340576172 M 5.119999885559082 3.8500003814697266 C 5.206666469573975 3.0966663360595703 5.4033331871032715 2.333333969116211 5.710000038146973 1.5599994659423828 C 6.016666889190674 0.7933330535888672 6.429999828338623 0.09333419799804688 6.949999809265137 -0.5400009155273438 C 7.46999979019165 -1.166666030883789 8.100000381469727 -1.6700000762939453 8.84000015258789 -2.049999237060547 C 9.579999923706055 -2.4300003051757812 10.41333293914795 -2.6200008392333984 11.34000015258789 -2.6200008392333984 C 11.366666793823242 -2.6200008392333984 11.443333625793457 -2.613332748413086 11.569999694824219 -2.6000003814697266 C 11.696666717529297 -2.5866661071777344 11.8100004196167 -2.563333511352539 11.90999984741211 -2.530000686645508 C 12.00333309173584 -2.5033340454101562 12.043333053588867 -2.4766674041748047 12.029999732971191 -2.450000762939453 C 12.016666412353516 -2.4233341217041016 11.91333293914795 -2.39666748046875 11.720000267028809 -2.3700008392333984 C 10.960000038146973 -2.229999542236328 10.260000228881836 -1.9766674041748047 9.619999885559082 -1.6100006103515625 C 8.973333358764648 -1.2433338165283203 8.41333293914795 -0.7966670989990234 7.940000057220459 -0.2700004577636719 C 7.460000038146973 0.2633342742919922 7.073333263397217 0.8600006103515625 6.78000020980835 1.5200004577636719 C 6.486666679382324 2.1800003051757812 6.313333511352539 2.8600006103515625 6.260000228881836 3.559999465942383 C 6.146666526794434 4.899999618530273 6.203333377838135 6.25 6.429999828338623 7.6100006103515625 C 6.650000095367432 8.969999313354492 6.9066667556762695 10.319999694824219 7.199999809265137 11.65999984741211 C 7.493333339691162 13.006667137145996 7.746666431427002 14.356666564941406 7.960000038146973 15.710000038146973 C 8.166666984558105 17.06999969482422 8.216666221618652 18.42333221435547 8.109999656677246 19.770000457763672 C 8.050000190734863 20.303333282470703 7.923333168029785 20.863332748413086 7.730000019073486 21.450000762939453 C 7.53000020980835 22.036666870117188 7.269999980926514 22.58333396911621 6.949999809265137 23.09000015258789 C 6.630000114440918 23.59000015258789 6.230000019073486 24.016666412353516 5.75 24.369998931884766 C 5.276666641235352 24.71666717529297 4.746666431427002 24.933334350585938 4.159999847412109 25.020000457763672 C 3.7133333683013916 25.073333740234375 3.5233333110809326 25.049999237060547 3.5899999141693115 24.950000762939453 C 3.6633334159851074 24.856666564941406 3.823333263397217 24.739999771118164 4.070000171661377 24.600000381469727 C 5.083333492279053 24.040000915527344 5.776666641235352 23.380001068115234 6.150000095367432 22.619998931884766 C 6.53000020980835 21.866666793823242 6.776666641235352 20.93000030517578 6.889999866485596 19.810001373291016 C 7.003333568572998 18.523334503173828 6.953333377838135 17.206666946411133 6.739999771118164 15.859999656677246 C 6.5333333015441895 14.520000457763672 6.289999961853027 13.176666259765625 6.010000228881836 11.829999923706055 C 5.730000019073486 10.483333587646484 5.483333110809326 9.14666748046875 5.269999980926514 7.819999694824219 C 5.063333511352539 6.486665725708008 5.013333320617676 5.163333892822266 5.119999885559082 3.8500003814697266 M 3.990000009536743 27.1200008392334 C 5.163333415985107 27.1200008392334 6.1566667556762695 26.90333366394043 6.96999979019165 26.469999313354492 C 7.7833333015441895 26.036666870117188 8.456666946411133 25.459999084472656 8.989999771118164 24.739999771118164 C 9.523333549499512 24.02666664123535 9.930000305175781 23.203332901000977 10.210000038146973 22.270000457763672 C 10.489999771118164 21.329999923706055 10.670000076293945 20.356666564941406 10.75 19.350000381469727 C 10.863333702087402 18.09000015258789 10.83666706085205 16.829999923706055 10.670000076293945 15.569999694824219 C 10.50333309173584 14.3100004196167 10.313333511352539 13.056666374206543 10.100000381469727 11.809999465942383 C 9.893333435058594 10.563333511352539 9.703332901000977 9.309999465942383 9.529999732971191 8.049999237060547 C 9.363333702087402 6.790000915527344 9.33666706085205 5.516666412353516 9.449999809265137 4.229999542236328 C 9.563333511352539 2.9433326721191406 9.963333129882812 1.9200000762939453 10.649999618530273 1.1599998474121094 C 11.33666706085205 0.4066658020019531 12.363333702087402 0.030000686645507812 13.729999542236328 0.030000686645507812 C 14.210000038146973 0.030000686645507812 14.819999694824219 0.11333274841308594 15.5600004196167 0.2800006866455078 C 16.299999237060547 0.4466667175292969 16.90999984741211 0.6833324432373047 17.389999389648438 0.9899997711181641 C 17.889999389648438 1.3299999237060547 17.84666633605957 1.4300003051757812 17.260000228881836 1.2900009155273438 C 16.926666259765625 1.2033329010009766 16.49333381652832 1.10333251953125 15.960000038146973 0.9899997711181641 C 15.426666259765625 0.8833332061767578 15.020000457763672 0.8299999237060547 14.739999771118164 0.8299999237060547 C 13.646666526794434 0.8299999237060547 12.710000038146973 1.0666675567626953 11.930000305175781 1.5400009155273438 C 11.143333435058594 2.013334274291992 10.693333625793457 2.85333251953125 10.579999923706055 4.059999465942383 C 10.4399995803833 5.34666633605957 10.470000267028809 6.626667022705078 10.670000076293945 7.899999618530273 C 10.863333702087402 9.173334121704102 11.08666706085205 10.456666946411133 11.34000015258789 11.75 C 11.59333324432373 13.036666870117188 11.8100004196167 14.323333740234375 11.989999771118164 15.609999656677246 C 12.170000076293945 16.89666748046875 12.206666946411133 18.183334350585938 12.100000381469727 19.470001220703125 C 12.013333320617676 20.536666870117188 11.803333282470703 21.573333740234375 11.470000267028809 22.579999923706055 C 11.130000114440918 23.586666107177734 10.65333366394043 24.496665954589844 10.039999961853027 25.309999465942383 C 9.420000076293945 26.123332977294922 8.65666675567627 26.773332595825195 7.75 27.260000228881836 C 6.836666584014893 27.753334045410156 5.766666889190674 28 4.539999961853027 28 C 4.199999809265137 28 3.763333320617676 27.94333267211914 3.2300000190734863 27.829999923706055 C 2.7033333778381348 27.71666717529297 2.1733334064483643 27.56999969482422 1.6399999856948853 27.389999389648438 C 1.1066666841506958 27.209999084472656 0.6100000143051147 26.98666763305664 0.15000000596046448 26.719999313354492 C -0.3166666626930237 26.453332901000977 -0.6600000262260437 26.16666603088379 -0.8799999952316284 25.860000610351562 C -1.1333333253860474 25.579999923706055 -1.0499999523162842 25.510000228881836 -0.6299999952316284 25.649999618530273 C -0.15666666626930237 25.90333366394043 0.4233333468437195 26.209999084472656 1.1100000143051147 26.56999969482422 C 1.7966666221618652 26.93666648864746 2.756666660308838 27.1200008392334 3.990000009536743 27.1200008392334 M 3.740000009536743 25.649999618530273 C 4.440000057220459 25.649999618530273 5.083333492279053 25.536666870117188 5.670000076293945 25.309999465942383 C 6.256666660308838 25.09000015258789 6.860000133514404 24.796667098999023 7.480000019073486 24.43000030517578 L 7.480000019073486 24.559999465942383 C 7.480000019073486 24.80666732788086 7.3466668128967285 25.049999237060547 7.079999923706055 25.290000915527344 C 6.813333511352539 25.530000686645508 6.483333110809326 25.746665954589844 6.090000152587891 25.940000534057617 C 5.696666717529297 26.139999389648438 5.256666660308838 26.293333053588867 4.769999980926514 26.399999618530273 C 4.276666641235352 26.51333236694336 3.7799999713897705 26.56999969482422 3.2799999713897705 26.56999969482422 C 3.0799999237060547 26.56999969482422 2.81333327293396 26.536666870117188 2.4800000190734863 26.469999313354492 C 2.140000104904175 26.39666748046875 1.7966666221618652 26.296667098999023 1.4500000476837158 26.170000076293945 C 1.096666693687439 26.043333053588867 0.7666666507720947 25.89666748046875 0.46000000834465027 25.729999542236328 C 0.15333333611488342 25.56333351135254 -0.05666666850447655 25.366666793823242 -0.17000000178813934 25.139999389648438 C -0.476666659116745 24.80666732788086 -0.5733333230018616 24.619998931884766 -0.46000000834465027 24.579999923706055 C -0.3466666638851166 24.53333282470703 -0.19333332777023315 24.579999923706055 0 24.719999313354492 C 0.4466666579246521 24.860000610351562 0.9566666483879089 25.049999237060547 1.5299999713897705 25.290000915527344 C 2.1033332347869873 25.530000686645508 2.8399999141693115 25.649999618530273 3.740000009536743 25.649999618530273 ZM 38.88686752319336 0.7800006866455078 C 38.88686752319336 1.2866668701171875 38.77020263671875 1.8199996948242188 38.536865234375 2.3799991607666016 C 38.29686737060547 2.940000534057617 38.01020050048828 3.486665725708008 37.67686462402344 4.020000457763672 C 37.33686828613281 4.553333282470703 36.95686721801758 5.0366668701171875 36.536865234375 5.469999313354492 C 36.11686706542969 5.90333366394043 35.710201263427734 6.260000228881836 35.31686782836914 6.540000915527344 C 34.256866455078125 7.319999694824219 33.09020233154297 8.069999694824219 31.81686782836914 8.790000915527344 C 30.543533325195312 9.503334045410156 29.30353355407715 10.09666633605957 28.096866607666016 10.569999694824219 C 28.043533325195312 10.59666633605957 27.916866302490234 10.64666748046875 27.716867446899414 10.719999313354492 C 27.52353286743164 10.786666870117188 27.396865844726562 10.793333053588867 27.336868286132812 10.739999771118164 C 27.28353500366211 10.680000305175781 27.326866149902344 10.573333740234375 27.466867446899414 10.420000076293945 C 27.60686683654785 10.266666412353516 27.720199584960938 10.163333892822266 27.806867599487305 10.110000610351562 C 28.000200271606445 9.90999984741211 28.256866455078125 9.670000076293945 28.576866149902344 9.389999389648438 C 28.903533935546875 9.110000610351562 29.24020004272461 8.836666107177734 29.586868286132812 8.569999694824219 C 29.940200805664062 8.309999465942383 30.290199279785156 8.053333282470703 30.63686752319336 7.799999237060547 C 30.99020004272461 7.546667098999023 31.306867599487305 7.350000381469727 31.586868286132812 7.209999084472656 C 31.780200958251953 7.09666633605957 32.22019958496094 6.780000686645508 32.90686798095703 6.260000228881836 C 33.593536376953125 5.746665954589844 34.326866149902344 5.14666748046875 35.10686492919922 4.459999084472656 C 35.893531799316406 3.7733325958251953 36.63020324707031 3.0799999237060547 37.31686782836914 2.3799991607666016 C 38.00353240966797 1.6800003051757812 38.430198669433594 1.1066665649414062 38.596866607666016 0.6599998474121094 C 38.710201263427734 0.45999908447265625 38.79353332519531 0.3899993896484375 38.846866607666016 0.4500007629394531 C 38.87353515625 0.4766674041748047 38.88686752319336 0.5333328247070312 38.88686752319336 0.6200008392333984 C 38.88686752319336 0.7000007629394531 38.88686752319336 0.7533340454101562 38.88686752319336 0.7800006866455078 M 20.576866149902344 16.369998931884766 C 21.616867065429688 16.510000228881836 22.626867294311523 16.709999084472656 23.60686683654785 16.970001220703125 C 24.586868286132812 17.23666763305664 25.496868133544922 17.73666763305664 26.336868286132812 18.470001220703125 C 27.31686782836914 19.310001373291016 28.32353401184082 20.239999771118164 29.35686683654785 21.260000228881836 C 30.390201568603516 22.280000686645508 31.34353256225586 23.280000686645508 32.21686553955078 24.260000228881836 C 32.27020263671875 24.31999969482422 32.35353469848633 24.426666259765625 32.46686553955078 24.579999923706055 C 32.5802001953125 24.733333587646484 32.60686492919922 24.850000381469727 32.54686737060547 24.93000030517578 C 32.52020263671875 24.989999771118164 32.416866302490234 24.983333587646484 32.23686981201172 24.90999984741211 C 32.050201416015625 24.843334197998047 31.930200576782227 24.780000686645508 31.876867294311523 24.719999313354492 C 31.62353515625 24.579999923706055 31.32353401184082 24.393333435058594 30.97686767578125 24.15999984741211 C 30.62353515625 23.920000076293945 30.266868591308594 23.65999984741211 29.90686798095703 23.380001068115234 C 29.540199279785156 23.100000381469727 29.190200805664062 22.82666778564453 28.85686683654785 22.559999465942383 C 28.516868591308594 22.293333053588867 28.236865997314453 22.049999237060547 28.016868591308594 21.829999923706055 C 27.876867294311523 21.690000534057617 27.5035343170166 21.373332977294922 26.896865844726562 20.880001068115234 C 26.29686737060547 20.393333435058594 25.590200424194336 19.876667022705078 24.776866912841797 19.329999923706055 C 23.96353530883789 18.78333282470703 23.116867065429688 18.270000457763672 22.236867904663086 17.790000915527344 C 21.35686683654785 17.316665649414062 20.56686782836914 16.996665954589844 19.866867065429688 16.829999923706055 C 19.640201568603516 16.770000457763672 19.533533096313477 16.630001068115234 19.54686737060547 16.40999984741211 C 19.560199737548828 16.183334350585938 19.583534240722656 15.986666679382324 19.616867065429688 15.819999694824219 C 19.67020034790039 15.486666679382324 19.746868133544922 15.066666603088379 19.846866607666016 14.5600004196167 C 19.940200805664062 14.053333282470703 20.036867141723633 13.536666870117188 20.13686752319336 13.010000228881836 C 20.236867904663086 12.476666450500488 20.343534469604492 11.956666946411133 20.456867218017578 11.450000762939453 C 20.563533782958984 10.950000762939453 20.673534393310547 10.516666412353516 20.786867141723633 10.149999618530273 C 20.873533248901367 9.89666748046875 21.026866912841797 9.266666412353516 21.246868133544922 8.260000228881836 C 21.473533630371094 7.253334045410156 21.7002010345459 6.133333206176758 21.92686653137207 4.899999618530273 C 22.146867752075195 3.666666030883789 22.313533782958984 2.4766674041748047 22.42686653137207 1.3299999237060547 C 22.54020118713379 0.1833324432373047 22.526866912841797 -0.6566658020019531 22.38686752319336 -1.1900005340576172 C 22.326866149902344 -1.4433326721191406 22.340200424194336 -1.5699996948242188 22.42686653137207 -1.5699996948242188 C 22.480201721191406 -1.5699996948242188 22.52353286743164 -1.5333328247070312 22.556867599487305 -1.4599990844726562 C 22.583534240722656 -1.3933334350585938 22.623533248901367 -1.3299999237060547 22.67686653137207 -1.2700004577636719 C 22.98353385925293 -0.7966670989990234 23.223533630371094 -0.22333335876464844 23.396867752075195 0.4500007629394531 C 23.563533782958984 1.1233329772949219 23.666866302490234 1.8299999237060547 23.706867218017578 2.5699996948242188 C 23.746868133544922 3.309999465942383 23.73353385925293 4.043333053588867 23.666866302490234 4.770000457763672 C 23.593534469604492 5.503334045410156 23.486867904663086 6.133333206176758 23.346866607666016 6.659999847412109 C 23.04020118713379 7.840000152587891 22.690200805664062 9.010000228881836 22.29686737060547 10.170000076293945 C 21.910200119018555 11.329999923706055 21.49020004272461 12.5 21.036867141723633 13.680000305175781 C 21.350200653076172 13.233333587646484 21.646867752075195 12.806666374206543 21.92686653137207 12.399999618530273 C 22.206867218017578 11.99333381652832 22.456867218017578 11.606666564941406 22.67686653137207 11.239999771118164 L 22.716867446899414 11.030000686645508 C 22.996868133544922 9.690000534057617 23.340200424194336 8.333333969116211 23.746868133544922 6.959999084472656 C 24.153533935546875 5.586666107177734 24.38686752319336 4.10333251953125 24.446866989135742 2.510000228881836 C 24.500200271606445 2.3700008392333984 24.540199279785156 2.299999237060547 24.56686782836914 2.299999237060547 C 24.59353256225586 2.299999237060547 24.62353515625 2.3266658782958984 24.65686798095703 2.3799991607666016 C 24.68353271484375 2.4333324432373047 24.710201263427734 2.489999771118164 24.736865997314453 2.549999237060547 C 25.043533325195312 3.303333282470703 25.15686798095703 4.290000915527344 25.076866149902344 5.510000228881836 C 24.99020004272461 6.729999542236328 24.820201873779297 7.996665954589844 24.56686782836914 9.309999465942383 C 24.90686798095703 9.030000686645508 25.236865997314453 8.763334274291992 25.556867599487305 8.510000228881836 C 25.876867294311523 8.25666618347168 26.23353385925293 8.00666618347168 26.626867294311523 7.760000228881836 C 27.69353485107422 7.026666641235352 28.786867141723633 6.326665878295898 29.90686798095703 5.659999847412109 C 31.026866912841797 4.986665725708008 32.110198974609375 4.299999237060547 33.15686798095703 3.6000003814697266 C 34.210201263427734 2.8999996185302734 35.18353271484375 2.186666488647461 36.076866149902344 1.4599990844726562 C 36.97019958496094 0.7266674041748047 37.74020004272461 -0.073333740234375 38.38686752319336 -0.9400005340576172 C 38.473533630371094 -1.0200004577636719 38.53020095825195 -1.0333328247070312 38.55686950683594 -0.9799995422363281 C 38.583534240722656 -0.9799995422363281 38.59020233154297 -0.9466667175292969 38.576866149902344 -0.8799991607666016 C 38.563533782958984 -0.8066673278808594 38.55686950683594 -0.7566661834716797 38.55686950683594 -0.7299995422363281 C 38.13686752319336 0.41666603088378906 37.50019836425781 1.4333324432373047 36.64686584472656 2.3199996948242188 C 35.79353332519531 3.200000762939453 34.826866149902344 4.016666412353516 33.74686813354492 4.770000457763672 C 32.666866302490234 5.530000686645508 31.540199279785156 6.246665954589844 30.366867065429688 6.920000076293945 C 29.186866760253906 7.586666107177734 28.06686782836914 8.299999237060547 27.006866455078125 9.059999465942383 C 25.686866760253906 9.953332901000977 24.453533172607422 11.016666412353516 23.306867599487305 12.25 C 22.160200119018555 13.483333587646484 21.250200271606445 14.856666564941406 20.576866149902344 16.369998931884766 M 22.596866607666016 16.110000610351562 C 22.456867218017578 16.110000610351562 22.26686668395996 16.10333251953125 22.026866912841797 16.09000015258789 C 21.786867141723633 16.07666778564453 21.570199966430664 16.083332061767578 21.376867294311523 16.110000610351562 C 21.49020004272461 15.890000343322754 21.623533248901367 15.666666984558105 21.776866912841797 15.4399995803833 C 21.930200576782227 15.220000267028809 22.076866149902344 14.99666690826416 22.216867446899414 14.770000457763672 C 22.383533477783203 14.543333053588867 22.586868286132812 14.296667098999023 22.826866149902344 14.029999732971191 C 23.06686782836914 13.770000457763672 23.30353355407715 13.533333778381348 23.536867141723633 13.319999694824219 C 23.776866912841797 13.113333702087402 23.986865997314453 12.960000038146973 24.166866302490234 12.859999656677246 C 24.353534698486328 12.760000228881836 24.473533630371094 12.766666412353516 24.526866912841797 12.880000114440918 C 24.55353355407715 12.90666675567627 24.53353500366211 12.976666450500488 24.466867446899414 13.09000015258789 C 24.39353370666504 13.203332901000977 24.300201416015625 13.33666706085205 24.186866760253906 13.489999771118164 C 24.0802001953125 13.643333435058594 23.97686767578125 13.783333778381348 23.876867294311523 13.90999984741211 C 23.776866912841797 14.036666870117188 23.71353530883789 14.126667022705078 23.686866760253906 14.180000305175781 C 23.380199432373047 14.573333740234375 23.15686798095703 14.916666984558105 23.01686668395996 15.210000038146973 C 22.876867294311523 15.50333309173584 22.736867904663086 15.803333282470703 22.596866607666016 16.110000610351562 M 38.67686462402344 27.5 C 38.62353515625 27.553333282470703 38.54686737060547 27.559999465942383 38.446868896484375 27.520000457763672 C 38.35353469848633 27.47333335876465 38.25019836425781 27.4233341217041 38.13686752319336 27.3700008392334 C 37.32353210449219 27.003334045410156 36.56019973754883 26.55666732788086 35.846866607666016 26.030000686645508 C 35.1335334777832 25.496665954589844 34.44020080566406 24.920000076293945 33.766868591308594 24.299999237060547 C 33.093536376953125 23.68666648864746 32.430198669433594 23.049999237060547 31.776866912841797 22.389999389648438 C 31.116867065429688 21.73666763305664 30.450199127197266 21.086666107177734 29.776866912841797 20.440000534057617 C 29.30353355407715 19.993331909179688 28.800201416015625 19.529998779296875 28.266868591308594 19.049999237060547 C 27.73353385925293 18.57666778564453 27.186866760253906 18.13666534423828 26.626867294311523 17.729999542236328 C 26.06686782836914 17.323333740234375 25.486865997314453 16.97333335876465 24.88686752319336 16.68000030517578 C 24.280200958251953 16.38666534423828 23.67020034790039 16.196666717529297 23.056867599487305 16.110000610351562 C 23.423534393310547 15.583333015441895 24.01020050048828 14.983333587646484 24.81686782836914 14.3100004196167 C 25.630199432373047 13.636666297912598 26.513534545898438 12.976666450500488 27.466867446899414 12.329999923706055 C 28.42020034790039 11.690000534057617 29.35686683654785 11.076665878295898 30.276866912841797 10.489999771118164 C 31.203533172607422 9.89666748046875 31.960201263427734 9.420000076293945 32.54686737060547 9.059999465942383 C 33.5268669128418 8.440000534057617 34.51353454589844 7.780000686645508 35.506866455078125 7.079999923706055 C 36.50019836425781 6.379999160766602 37.416866302490234 5.526666641235352 38.256866455078125 4.520000457763672 C 38.343536376953125 4.406665802001953 38.430198669433594 4.366666793823242 38.516868591308594 4.399999618530273 C 38.516868591308594 4.453332901000977 38.50019836425781 4.5 38.46686553955078 4.540000915527344 C 38.44020080566406 4.586666107177734 38.42686462402344 4.636667251586914 38.42686462402344 4.690000534057617 C 38.286865234375 5.3899993896484375 37.87353515625 6.123332977294922 37.186866760253906 6.8899993896484375 C 36.50019836425781 7.663333892822266 35.723533630371094 8.399999618530273 34.85686492919922 9.100000381469727 C 33.99020004272461 9.799999237060547 33.110198974609375 10.450000762939453 32.21686553955078 11.049999237060547 C 31.31686782836914 11.656665802001953 30.600200653076172 12.140000343322754 30.06686782836914 12.5 C 29.56686782836914 12.84000015258789 29.043533325195312 13.16333293914795 28.496868133544922 13.470000267028809 C 27.950199127197266 13.776666641235352 27.396865844726562 14.076666831970215 26.836868286132812 14.369999885559082 C 26.276866912841797 14.66333293914795 25.736865997314453 14.930000305175781 25.216867446899414 15.170000076293945 C 24.703533172607422 15.40999984741211 24.220199584960938 15.626667022705078 23.766868591308594 15.819999694824219 C 24.500200271606445 15.819999694824219 25.333534240722656 16.043333053588867 26.266868591308594 16.489999771118164 C 27.206867218017578 16.93666648864746 28.140201568603516 17.476665496826172 29.06686782836914 18.110000610351562 C 29.986865997314453 18.73666763305664 30.840200424194336 19.393333435058594 31.626867294311523 20.079999923706055 C 32.40686798095703 20.766666412353516 33.006866455078125 21.33333396911621 33.42686462402344 21.780000686645508 C 34.326866149902344 22.760000228881836 35.21686553955078 23.713333129882812 36.096866607666016 24.639999389648438 C 36.97686767578125 25.566665649414062 37.75353240966797 26.363332748413086 38.42686462402344 27.030000686645508 C 38.653533935546875 27.25666618347168 38.73686981201172 27.413333892822266 38.67686462402344 27.5 M 21.456867218017578 -2.3199996948242188 C 21.850200653076172 -0.9799995422363281 21.97686767578125 0.4099998474121094 21.836868286132812 1.8500003814697266 C 21.696866989135742 3.2966670989990234 21.423534393310547 4.776666641235352 21.01686668395996 6.290000915527344 C 20.610200881958008 7.796667098999023 20.15686798095703 9.336666107177734 19.65686798095703 10.90999984741211 C 19.15019989013672 12.476666450500488 18.716867446899414 14.029999732971191 18.35686683654785 15.569999694824219 C 18.13020133972168 16.549999237060547 17.953533172607422 17.56999969482422 17.826866149902344 18.630001068115234 C 17.7002010345459 19.696666717529297 17.660200119018555 20.770000457763672 17.706867218017578 21.850000381469727 C 17.746868133544922 22.92333221435547 17.870201110839844 23.97333335876465 18.076866149902344 25 C 18.29020118713379 26.020000457763672 18.633533477783203 26.963333129882812 19.10686683654785 27.829999923706055 C 19.220199584960938 28.05666732788086 19.263534545898438 28.170000076293945 19.236867904663086 28.170000076293945 C 19.17686653137207 28.170000076293945 19.120201110839844 28.139999389648438 19.06686782836914 28.079999923706055 C 19.013534545898438 28.02666664123535 18.970199584960938 28 18.936866760253906 28 C 18.15686798095703 27.073333740234375 17.583534240722656 26.073333740234375 17.216867446899414 25 C 16.85686683654785 23.920000076293945 16.633533477783203 22.80666732788086 16.54686737060547 21.65999984741211 C 16.460201263427734 20.51333236694336 16.496868133544922 19.350000381469727 16.65686798095703 18.170000076293945 C 16.810199737548828 16.996665954589844 17.01020050048828 15.850000381469727 17.256866455078125 14.729999542236328 C 17.623533248901367 13.1899995803833 18.043533325195312 11.656665802001953 18.51686668395996 10.129999160766602 C 18.996868133544922 8.60333251953125 19.440200805664062 7.120000839233398 19.846866607666016 5.680000305175781 C 20.2535343170166 4.233333587646484 20.596866607666016 2.8400001525878906 20.876867294311523 1.5 C 21.15686798095703 0.1533336639404297 21.280200958251953 -1.136667251586914 21.246868133544922 -2.3700008392333984 C 21.246868133544922 -2.5366668701171875 21.263534545898438 -2.6200008392333984 21.29686737060547 -2.6200008392333984 C 21.32353401184082 -2.64666748046875 21.35686683654785 -2.6100006103515625 21.396867752075195 -2.510000228881836 C 21.436866760253906 -2.416666030883789 21.456867218017578 -2.35333251953125 21.456867218017578 -2.3199996948242188 M 41.326866149902344 28.84000015258789 C 41.326866149902344 28.893333435058594 41.300201416015625 28.93666648864746 41.24686813354492 28.969999313354492 C 41.186866760253906 28.996665954589844 41.13020324707031 29.023332595825195 41.076866149902344 29.049999237060547 C 40.01020050048828 29.44333267211914 38.980201721191406 29.6200008392334 37.98686981201172 29.579999923706055 C 36.993534088134766 29.53333282470703 36.0268669128418 29.363332748413086 35.08686828613281 29.06999969482422 C 34.153533935546875 28.77666664123535 33.26020050048828 28.393333435058594 32.40686798095703 27.920000076293945 C 31.54686737060547 27.440000534057617 30.74020004272461 26.963333129882812 29.986865997314453 26.489999771118164 C 29.23353385925293 26.010000228881836 28.506866455078125 25.463333129882812 27.806867599487305 24.850000381469727 C 27.10686683654785 24.23666763305664 26.42020034790039 23.606666564941406 25.746868133544922 22.959999084472656 C 25.07353401184082 22.31333351135254 24.40686798095703 21.683334350585938 23.746868133544922 21.06999969482422 C 23.093534469604492 20.456666946411133 22.44353485107422 19.90999984741211 21.79686737060547 19.43000030517578 L 20.496868133544922 23.799999237060547 C 20.436866760253906 23.940000534057617 20.38686752319336 24.066665649414062 20.346866607666016 24.18000030517578 C 20.306867599487305 24.293333053588867 20.256866455078125 24.33333396911621 20.196866989135742 24.299999237060547 C 20.14353370666504 24.273332595825195 20.110200881958008 24.196666717529297 20.096866607666016 24.06999969482422 C 20.083534240722656 23.94333267211914 20.076866149902344 23.809999465942383 20.076866149902344 23.670000076293945 C 20.103534698486328 22.863332748413086 20.173534393310547 22.040000915527344 20.286867141723633 21.200000762939453 C 20.40019989013672 20.360000610351562 20.54020118713379 19.520000457763672 20.706867218017578 18.68000030517578 C 20.54020118713379 18.566665649414062 20.3302001953125 18.439998626708984 20.076866149902344 18.299999237060547 C 19.82353401184082 18.15999984741211 19.583534240722656 18.020000457763672 19.35686683654785 17.880001068115234 C 19.30353355407715 17.85333251953125 19.23353385925293 17.803333282470703 19.146867752075195 17.729999542236328 C 19.06686782836914 17.663333892822266 19.04020118713379 17.600000381469727 19.06686782836914 17.540000915527344 C 19.06686782836914 17.51333236694336 19.13686752319336 17.5 19.276866912841797 17.5 C 20.28353500366211 17.586666107177734 21.270200729370117 17.916667938232422 22.236867904663086 18.489999771118164 C 23.203533172607422 19.06333351135254 24.17020034790039 19.746665954589844 25.13686752319336 20.540000915527344 C 26.103534698486328 21.34000015258789 27.076866149902344 22.203332901000977 28.056867599487305 23.130001068115234 C 29.036867141723633 24.049999237060547 30.056867599487305 24.93000030517578 31.116867065429688 25.770000457763672 C 32.463531494140625 26.809999465942383 34.00353240966797 27.6299991607666 35.73686981201172 28.229999542236328 C 37.47686767578125 28.829999923706055 39.243534088134766 29.020000457763672 41.036865234375 28.799999237060547 C 41.230201721191406 28.739999771118164 41.326866149902344 28.753334045410156 41.326866149902344 28.84000015258789 M 20.40686798095703 28.170000076293945 C 20.353534698486328 28.170000076293945 20.270200729370117 28.139999389648438 20.15686798095703 28.079999923706055 C 20.103534698486328 28.053333282470703 20.063533782958984 28.013334274291992 20.036867141723633 27.959999084472656 C 19.67020034790039 27.540000915527344 19.383533477783203 27.14666748046875 19.17686653137207 26.780000686645508 C 18.963533401489258 26.420000076293945 18.786867141723633 25.83333396911621 18.646867752075195 25.020000457763672 C 18.593534469604492 24.713333129882812 18.556867599487305 24.31999969482422 18.536867141723633 23.84000015258789 C 18.52353286743164 23.366666793823242 18.533533096313477 22.906665802001953 18.56686782836914 22.459999084472656 C 18.593534469604492 22.00666618347168 18.640201568603516 21.626667022705078 18.706867218017578 21.31999969482422 C 18.780200958251953 21.01333236694336 18.873533248901367 20.860000610351562 18.986867904663086 20.860000610351562 C 19.013534545898438 20.860000610351562 19.04686737060547 20.93000030517578 19.086868286132812 21.06999969482422 C 19.126867294311523 21.209999084472656 19.16353416442871 21.369998931884766 19.196866989135742 21.549999237060547 C 19.223533630371094 21.73666763305664 19.243534088134766 21.920000076293945 19.256866455078125 22.100000381469727 C 19.270200729370117 22.280000686645508 19.276866912841797 22.399999618530273 19.276866912841797 22.459999084472656 C 19.3302001953125 23.073333740234375 19.38020133972168 23.57666778564453 19.42686653137207 23.969999313354492 C 19.466867446899414 24.363332748413086 19.513534545898438 24.713333129882812 19.56686782836914 25.020000457763672 C 19.706867218017578 25.913333892822266 19.986867904663086 26.850000381469727 20.40686798095703 27.829999923706055 C 20.440200805664062 27.889999389648438 20.463533401489258 27.959999084472656 20.47686767578125 28.040000915527344 C 20.49020004272461 28.126667022705078 20.466867446899414 28.170000076293945 20.40686798095703 28.170000076293945 M 35.61686706542969 27.329999923706055 C 35.81019973754883 27.356666564941406 36.05353546142578 27.40333366394043 36.346866607666016 27.469999313354492 C 36.64019775390625 27.543333053588867 36.87353515625 27.606666564941406 37.04686737060547 27.65999984741211 C 37.773536682128906 27.860000610351562 38.38020324707031 28.010000228881836 38.86686706542969 28.110000610351562 C 39.360198974609375 28.203332901000977 39.94353485107422 28.26333236694336 40.61686706542969 28.290000915527344 C 40.67020034790039 28.290000915527344 40.74686813354492 28.290000915527344 40.846866607666016 28.290000915527344 C 40.94020080566406 28.290000915527344 40.98686981201172 28.31999969482422 40.98686981201172 28.3799991607666 C 40.98686981201172 28.49333381652832 40.846866607666016 28.56333351135254 40.56686782836914 28.59000015258789 C 40.23353576660156 28.643333435058594 39.94020080566406 28.670000076293945 39.686866760253906 28.670000076293945 C 39.43353271484375 28.670000076293945 39.11353302001953 28.656665802001953 38.72686767578125 28.6299991607666 C 38.50019836425781 28.60333251953125 38.23353576660156 28.559999465942383 37.92686462402344 28.5 C 37.620201110839844 28.446666717529297 37.31019973754883 28.3700008392334 36.99686813354492 28.270000457763672 C 36.69020080566406 28.176666259765625 36.403533935546875 28.079999923706055 36.13686752319336 27.979999542236328 C 35.870201110839844 27.8799991607666 35.68353271484375 27.773332595825195 35.576866149902344 27.65999984741211 C 35.463531494140625 27.553333282470703 35.42020034790039 27.456666946411133 35.446868896484375 27.3700008392334 C 35.446868896484375 27.343334197998047 35.50353240966797 27.329999923706055 35.61686706542969 27.329999923706055 Z" transform="matrix(1.4502427577972412, 0, 0, 1.4502427577972412, 3.9671037197113037, 17.724746704101562)" style="fill: rgb(51, 51, 51); white-space: pre; color: rgb(51, 51, 51);" />
</svg>
