<?xml version="1.0" encoding="utf-8"?>
<svg id="master-artboard" viewBox="0 0 64 64" version="1.1" xmlns="http://www.w3.org/2000/svg" x="0px" y="0px" style="enable-background:new 0 0 1400 980;" width="64px" height="64px">
   
    <path d="M 12.199999809265137 -1.760000228881836 C 12.74666690826416 -1.760000228881836 13.373332977294922 -1.6599998474121094 14.079999923706055 -1.4599990844726562 C 14.779999732971191 -1.2533340454101562 15.34666633605957 -0.9200000762939453 15.779999732971191 -0.45999908447265625 C 16.079999923706055 -0.18666648864746094 16.040000915527344 -0.10666656494140625 15.65999984741211 -0.2199993133544922 C 15.279999732971191 -0.2733325958251953 14.893333435058594 -0.3600006103515625 14.5 -0.4799995422363281 C 14.106666564941406 -0.6000003814697266 13.680000305175781 -0.6599998474121094 13.220000267028809 -0.6599998474121094 C 11.539999961853027 -0.6866664886474609 10.319999694824219 -0.2066669464111328 9.5600004196167 0.7800006866455078 C 8.800000190734863 1.7666664123535156 8.366666793823242 3.020000457763672 8.260000228881836 4.540000915527344 C 8.180000305175781 5.600000381469727 8.199999809265137 6.65333366394043 8.319999694824219 7.700000762939453 C 8.4399995803833 8.739999771118164 8.583333015441895 9.776666641235352 8.75 10.809999465942383 C 8.90999984741211 11.83666706085205 9.050000190734863 12.866666793823242 9.170000076293945 13.899999618530273 C 9.296667098999023 14.933333396911621 9.303333282470703 15.976666450500488 9.1899995803833 17.029998779296875 C 9.16333293914795 17.329999923706055 9.130000114440918 17.506668090820312 9.09000015258789 17.560001373291016 C 9.050000190734863 17.61333465576172 9.010000228881836 17.600000381469727 8.970000267028809 17.520000457763672 C 8.930000305175781 17.439998626708984 8.890000343322754 17.32666778564453 8.850000381469727 17.18000030517578 C 8.8100004196167 17.02666664123535 8.776666641235352 16.89666748046875 8.75 16.790000915527344 C 8.583333015441895 15.703332901000977 8.380000114440918 14.609999656677246 8.140000343322754 13.510000228881836 C 7.893333435058594 12.416666984558105 7.659999847412109 11.313333511352539 7.440000057220459 10.200000762939453 C 7.226666450500488 9.086666107177734 7.059999942779541 7.973333358764648 6.940000057220459 6.8600006103515625 C 6.813333511352539 5.746665954589844 6.806666851043701 4.623332977294922 6.920000076293945 3.489999771118164 C 7 2.7566661834716797 7.173333168029785 2.0699996948242188 7.440000057220459 1.4300003051757812 C 7.7133331298828125 0.7900009155273438 8.073333740234375 0.23333358764648438 8.520000457763672 -0.23999977111816406 C 8.966666221618652 -0.7133331298828125 9.50333309173584 -1.0866661071777344 10.130000114440918 -1.3600006103515625 C 10.756667137145996 -1.6266670227050781 11.446666717529297 -1.760000228881836 12.199999809265137 -1.760000228881836 M 4.960000038146973 3.6100006103515625 C 5.046666622161865 2.876667022705078 5.236666679382324 2.136667251586914 5.53000020980835 1.3899993896484375 C 5.829999923706055 0.6433334350585938 6.230000019073486 -0.03333282470703125 6.730000019073486 -0.6399993896484375 C 7.236666679382324 -1.2533340454101562 7.8466668128967285 -1.7433338165283203 8.5600004196167 -2.1100006103515625 C 9.279999732971191 -2.4766674041748047 10.08666706085205 -2.6599998474121094 10.979999542236328 -2.6599998474121094 C 11.013333320617676 -2.6599998474121094 11.09000015258789 -2.6533336639404297 11.210000038146973 -2.6399993896484375 C 11.329999923706055 -2.626667022705078 11.436666488647461 -2.6066665649414062 11.529999732971191 -2.5799999237060547 C 11.630000114440918 -2.553333282470703 11.673333168029785 -2.5266666412353516 11.65999984741211 -2.5 C 11.646666526794434 -2.4666671752929688 11.543333053588867 -2.436666488647461 11.350000381469727 -2.4099998474121094 C 10.616666793823242 -2.2766666412353516 9.9399995803833 -2.0333328247070312 9.319999694824219 -1.6800003051757812 C 8.693333625793457 -1.3266658782958984 8.149999618530273 -0.8933334350585938 7.690000057220459 -0.37999916076660156 C 7.230000019073486 0.1333332061767578 6.856666564941406 0.7099990844726562 6.570000171661377 1.3500003814697266 C 6.2833333015441895 1.989999771118164 6.113333225250244 2.64666748046875 6.059999942779541 3.3199996948242188 C 5.953333377838135 4.626667022705078 6.006666660308838 5.936666488647461 6.21999979019165 7.25 C 6.440000057220459 8.563333511352539 6.693333148956299 9.870000839233398 6.980000019073486 11.170000076293945 C 7.260000228881836 12.476666450500488 7.503333568572998 13.786666870117188 7.710000038146973 15.100000381469727 C 7.909999847412109 16.413333892822266 7.956666469573975 17.72333335876465 7.849999904632568 19.030000686645508 C 7.796666622161865 19.543333053588867 7.676666736602783 20.08333396911621 7.489999771118164 20.649999618530273 C 7.296666622161865 21.22333335876465 7.043333530426025 21.753334045410156 6.730000019073486 22.239999771118164 C 6.423333168029785 22.726665496826172 6.0366668701171875 23.139999389648438 5.570000171661377 23.479999542236328 C 5.110000133514404 23.81999969482422 4.5966668128967285 24.030000686645508 4.03000020980835 24.110000610351562 C 3.5966665744781494 24.163333892822266 3.4133334159851074 24.143333435058594 3.4800000190734863 24.049999237060547 C 3.5466666221618652 23.956666946411133 3.7033333778381348 23.84000015258789 3.950000047683716 23.700000762939453 C 4.923333168029785 23.15999984741211 5.5933332443237305 22.523334503173828 5.960000038146973 21.790000915527344 C 6.326666831970215 21.05666732788086 6.563333511352539 20.149999618530273 6.670000076293945 19.06999969482422 C 6.776666641235352 17.823333740234375 6.730000019073486 16.546667098999023 6.53000020980835 15.239999771118164 C 6.323333263397217 13.9399995803833 6.086666584014893 12.640000343322754 5.820000171661377 11.34000015258789 C 5.546666622161865 10.033332824707031 5.309999942779541 8.736665725708008 5.110000133514404 7.450000762939453 C 4.9033331871032715 6.163333892822266 4.853333473205566 4.883333206176758 4.960000038146973 3.6100006103515625 M 3.859999895095825 26.149999618530273 C 5 26.149999618530273 5.9633331298828125 25.940000534057617 6.75 25.520000457763672 C 7.5366668701171875 25.093334197998047 8.1899995803833 24.536666870117188 8.710000038146973 23.850000381469727 C 9.223333358764648 23.156665802001953 9.616666793823242 22.356666564941406 9.890000343322754 21.450000762939453 C 10.15666675567627 20.536666870117188 10.329999923706055 19.593334197998047 10.40999984741211 18.619998931884766 C 10.523333549499512 17.399999618530273 10.49666690826416 16.18000030517578 10.329999923706055 14.960000038146973 C 10.170000076293945 13.739999771118164 9.986666679382324 12.526666641235352 9.779999732971191 11.319999694824219 C 9.579999923706055 10.113332748413086 9.396666526794434 8.899999618530273 9.229999542236328 7.680000305175781 C 9.069999694824219 6.453332901000977 9.043333053588867 5.216667175292969 9.149999618530273 3.969999313354492 C 9.263333320617676 2.7233333587646484 9.649999618530273 1.7333335876464844 10.3100004196167 1 C 10.976666450500488 0.2733325958251953 11.973333358764648 -0.09000015258789062 13.300000190734863 -0.09000015258789062 C 13.760000228881836 -0.09000015258789062 14.350000381469727 -0.010000228881835938 15.069999694824219 0.14999961853027344 C 15.789999961853027 0.3099994659423828 16.3799991607666 0.5400009155273438 16.84000015258789 0.8400001525878906 C 17.3266658782959 1.166666030883789 17.286666870117188 1.2633342742919922 16.719999313354492 1.1299991607666016 C 16.393333435058594 1.0433330535888672 15.973333358764648 0.9466667175292969 15.460000038146973 0.8400001525878906 C 14.946666717529297 0.7333335876464844 14.553333282470703 0.6800003051757812 14.279999732971191 0.6800003051757812 C 13.220000267028809 0.6800003051757812 12.3100004196167 0.9099998474121094 11.550000190734863 1.3700008392333984 C 10.789999961853027 1.8299999237060547 10.356666564941406 2.6433334350585938 10.25 3.809999465942383 C 10.116666793823242 5.056667327880859 10.143333435058594 6.296667098999023 10.329999923706055 7.530000686645508 C 10.523333549499512 8.763334274291992 10.739999771118164 10.00666618347168 10.979999542236328 11.260000228881836 C 11.226666450500488 12.506667137145996 11.436666488647461 13.75333309173584 11.609999656677246 15 C 11.789999961853027 16.246665954589844 11.826666831970215 17.493331909179688 11.720000267028809 18.739999771118164 C 11.633333206176758 19.773334503173828 11.430000305175781 20.77666664123535 11.109999656677246 21.75 C 10.783333778381348 22.729999542236328 10.319999694824219 23.613332748413086 9.720000267028809 24.399999618530273 C 9.126667022705078 25.18666648864746 8.390000343322754 25.816667556762695 7.510000228881836 26.290000915527344 C 6.62333345413208 26.763334274291992 5.583333492279053 27 4.389999866485596 27 C 4.070000171661377 27 3.6500000953674316 26.946666717529297 3.130000114440918 26.84000015258789 C 2.616666555404663 26.726667404174805 2.1033332347869873 26.58333396911621 1.590000033378601 26.40999984741211 C 1.0700000524520874 26.23666763305664 0.5866666436195374 26.020000457763672 0.14000000059604645 25.760000228881836 C -0.30666667222976685 25.5 -0.6366666555404663 25.22333335876465 -0.8500000238418579 24.93000030517578 C -1.096666693687439 24.656665802001953 -1.0166666507720947 24.586666107177734 -0.6100000143051147 24.719999313354492 C -0.15000000596046448 24.96666717529297 0.41333332657814026 25.266666412353516 1.0800000429153442 25.6200008392334 C 1.7400000095367432 25.97333335876465 2.6666667461395264 26.149999618530273 3.859999895095825 26.149999618530273 M 3.619999885559082 24.719999313354492 C 4.300000190734863 24.719999313354492 4.923333168029785 24.613332748413086 5.489999771118164 24.399999618530273 C 6.063333511352539 24.18000030517578 6.646666526794434 23.893333435058594 7.239999771118164 23.540000915527344 L 7.239999771118164 23.65999984741211 C 7.239999771118164 23.906665802001953 7.113333225250244 24.14666748046875 6.860000133514404 24.380001068115234 C 6.599999904632568 24.606666564941406 6.28000020980835 24.816665649414062 5.900000095367432 25.010000228881836 C 5.519999980926514 25.196666717529297 5.0933332443237305 25.343334197998047 4.619999885559082 25.450000762939453 C 4.146666526794434 25.56333351135254 3.6633334159851074 25.6200008392334 3.1700000762939453 25.6200008392334 C 2.9833333492279053 25.6200008392334 2.7266666889190674 25.586666107177734 2.4000000953674316 25.520000457763672 C 2.073333263397217 25.446666717529297 1.7400000095367432 25.350000381469727 1.399999976158142 25.229999542236328 C 1.0666667222976685 25.110000610351562 0.75 24.96666717529297 0.44999998807907104 24.799999237060547 C 0.15000000596046448 24.639999389648438 -0.0533333346247673 24.450000762939453 -0.1599999964237213 24.229999542236328 C -0.46000000834465027 23.90999984741211 -0.5566666722297668 23.726667404174805 -0.44999998807907104 23.68000030517578 C -0.33666667342185974 23.639999389648438 -0.18666666746139526 23.690000534057617 0 23.829999923706055 C 0.4333333373069763 23.963333129882812 0.9266666769981384 24.14666748046875 1.4800000190734863 24.380001068115234 C 2.0399999618530273 24.606666564941406 2.753333330154419 24.719999313354492 3.619999885559082 24.719999313354492 ZM 37.674137115478516 0.6399993896484375 C 37.674137115478516 1.1266670227050781 37.557472229003906 1.6399993896484375 37.32413864135742 2.1800003051757812 C 37.09747314453125 2.7266674041748047 36.820804595947266 3.2566661834716797 36.494140625 3.770000457763672 C 36.16747283935547 4.283332824707031 35.800804138183594 4.75 35.39413833618164 5.170000076293945 C 34.98747253417969 5.590000152587891 34.594139099121094 5.936666488647461 34.21413803100586 6.209999084472656 C 33.18080520629883 6.969999313354492 32.0474739074707 7.696666717529297 30.81414031982422 8.389999389648438 C 29.580806732177734 9.083333969116211 28.38080596923828 9.65999984741211 27.21413803100586 10.120000839233398 C 27.160804748535156 10.14666748046875 27.04080581665039 10.19333267211914 26.85413932800293 10.260000228881836 C 26.660804748535156 10.326665878295898 26.537471771240234 10.333333969116211 26.48413848876953 10.280000686645508 C 26.430805206298828 10.226667404174805 26.470806121826172 10.123332977294922 26.60413932800293 9.969999313354492 C 26.737472534179688 9.823333740234375 26.84747314453125 9.723333358764648 26.934139251708984 9.670000076293945 C 27.120805740356445 9.476667404174805 27.370805740356445 9.246665954589844 27.684139251708984 8.979999542236328 C 27.997472763061523 8.706666946411133 28.324138641357422 8.440000534057617 28.664138793945312 8.180000305175781 C 28.997472763061523 7.926666259765625 29.334138870239258 7.676666259765625 29.67413902282715 7.430000305175781 C 30.01413917541504 7.190000534057617 30.320804595947266 7 30.594139099121094 6.8600006103515625 C 30.780805587768555 6.753334045410156 31.20747184753418 6.450000762939453 31.87413787841797 5.950000762939453 C 32.54080581665039 5.443332672119141 33.2541389465332 4.8600006103515625 34.014137268066406 4.200000762939453 C 34.76747131347656 3.5333328247070312 35.477474212646484 2.8600006103515625 36.14413833618164 2.1800003051757812 C 36.81080627441406 1.5066661834716797 37.22414016723633 0.9533329010009766 37.38414001464844 0.5200004577636719 C 37.490806579589844 0.32666587829589844 37.57413864135742 0.2566661834716797 37.63414001464844 0.3099994659423828 C 37.660804748535156 0.3366661071777344 37.674137115478516 0.3899993896484375 37.674137115478516 0.4699993133544922 C 37.674137115478516 0.5566673278808594 37.674137115478516 0.6133327484130859 37.674137115478516 0.6399993896484375 M 19.934139251708984 15.729999542236328 C 20.934139251708984 15.863333702087402 21.910804748535156 16.060001373291016 22.864139556884766 16.31999969482422 C 23.810806274414062 16.579999923706055 24.690805435180664 17.06333351135254 25.504138946533203 17.770000457763672 C 26.45747184753418 18.583332061767578 27.434139251708984 19.483333587646484 28.434139251708984 20.469999313354492 C 29.440805435180664 21.463333129882812 30.364139556884766 22.433334350585938 31.204139709472656 23.380001068115234 C 31.25747299194336 23.433334350585938 31.33747100830078 23.53333282470703 31.444137573242188 23.68000030517578 C 31.557472229003906 23.83333396911621 31.58414077758789 23.950000762939453 31.524139404296875 24.030000686645508 C 31.49747085571289 24.08333396911621 31.397472381591797 24.0766658782959 31.224140167236328 24.010000228881836 C 31.044139862060547 23.94333267211914 30.927471160888672 23.883333206176758 30.87413787841797 23.829999923706055 C 30.634140014648438 23.690000534057617 30.344139099121094 23.50666618347168 30.004138946533203 23.280000686645508 C 29.664138793945312 23.046667098999023 29.317472457885742 22.793333053588867 28.96413803100586 22.520000457763672 C 28.61080551147461 22.253334045410156 28.27080535888672 21.989999771118164 27.944137573242188 21.729999542236328 C 27.62413787841797 21.476665496826172 27.35413932800293 21.239999771118164 27.134140014648438 21.020000457763672 C 27.000804901123047 20.886667251586914 26.640804290771484 20.579999923706055 26.05413818359375 20.100000381469727 C 25.474140167236328 19.626667022705078 24.79080581665039 19.126667022705078 24.004138946533203 18.600000381469727 C 23.217472076416016 18.073333740234375 22.397472381591797 17.57666778564453 21.544139862060547 17.110000610351562 C 20.684139251708984 16.649999618530273 19.91747283935547 16.34000015258789 19.244138717651367 16.18000030517578 C 19.024139404296875 16.126667022705078 18.920804977416992 15.989999771118164 18.934139251708984 15.770000457763672 C 18.947471618652344 15.556666374206543 18.967472076416016 15.366666793823242 18.994138717651367 15.199999809265137 C 19.04747200012207 14.873332977294922 19.1241397857666 14.466666221618652 19.224140167236328 13.979999542236328 C 19.317472457885742 13.493332862854004 19.410804748535156 12.993332862854004 19.504138946533203 12.479999542236328 C 19.59747314453125 11.960000038146973 19.7008056640625 11.456666946411133 19.814138412475586 10.969999313354492 C 19.920804977416992 10.483333587646484 20.02747344970703 10.063333511352539 20.134140014648438 9.709999084472656 C 20.21413803100586 9.463333129882812 20.364139556884766 8.85333251953125 20.584138870239258 7.879999160766602 C 20.80413818359375 6.899999618530273 21.02080535888672 5.813333511352539 21.23413848876953 4.620000839233398 C 21.454139709472656 3.426666259765625 21.61747169494629 2.2766666412353516 21.724140167236328 1.1700000762939453 C 21.830806732177734 0.056667327880859375 21.817472457885742 -0.7566661834716797 21.684139251708984 -1.2700004577636719 C 21.63080596923828 -1.5166664123535156 21.64413833618164 -1.6399993896484375 21.724140167236328 -1.6399993896484375 C 21.77747344970703 -1.6399993896484375 21.817472457885742 -1.6066665649414062 21.844139099121094 -1.5400009155273438 C 21.870805740356445 -1.4733333587646484 21.910804748535156 -1.4133338928222656 21.96413803100586 -1.3600006103515625 C 22.26413917541504 -0.8933334350585938 22.494138717651367 -0.3366661071777344 22.654138565063477 0.3099994659423828 C 22.820804595947266 0.9633331298828125 22.92413902282715 1.6499996185302734 22.96413803100586 2.3700008392333984 C 23.004138946533203 3.083333969116211 22.990806579589844 3.793333053588867 22.92413902282715 4.5 C 22.857471466064453 5.206666946411133 22.754138946533203 5.816667556762695 22.614139556884766 6.329999923706055 C 22.320804595947266 7.469999313354492 21.98413848876953 8.60333251953125 21.60413932800293 9.729999542236328 C 21.224140167236328 10.856666564941406 20.817472457885742 11.989999771118164 20.384140014648438 13.130000114440918 C 20.677471160888672 12.696666717529297 20.960805892944336 12.283333778381348 21.23413848876953 11.890000343322754 C 21.50747299194336 11.49666690826416 21.750804901123047 11.123332977294922 21.96413803100586 10.770000457763672 L 22.004138946533203 10.559999465942383 C 22.27747344970703 9.260000228881836 22.61080551147461 7.946666717529297 23.004138946533203 6.620000839233398 C 23.397472381591797 5.2866668701171875 23.620805740356445 3.8500003814697266 23.67413902282715 2.309999465942383 C 23.72747230529785 2.1700000762939453 23.767471313476562 2.1000003814697266 23.794139862060547 2.1000003814697266 C 23.820804595947266 2.1000003814697266 23.850805282592773 2.126667022705078 23.884140014648438 2.1800003051757812 C 23.910804748535156 2.2333335876464844 23.93747329711914 2.2900009155273438 23.96413803100586 2.3500003814697266 C 24.25747299194336 3.0766658782958984 24.364139556884766 4.030000686645508 24.284137725830078 5.209999084472656 C 24.204139709472656 6.3899993896484375 24.04080581665039 7.620000839233398 23.794139862060547 8.899999618530273 C 24.120805740356445 8.626667022705078 24.440805435180664 8.366666793823242 24.754138946533203 8.120000839233398 C 25.067472457885742 7.879999160766602 25.414138793945312 7.636667251586914 25.794139862060547 7.3899993896484375 C 26.820804595947266 6.683332443237305 27.877471923828125 6.00666618347168 28.96413803100586 5.3600006103515625 C 30.050806045532227 4.706666946411133 31.100805282592773 4.040000915527344 32.114139556884766 3.3600006103515625 C 33.13414001464844 2.686666488647461 34.07747268676758 1.9966659545898438 34.94413757324219 1.2900009155273438 C 35.81080627441406 0.5833339691162109 36.557472229003906 -0.1900005340576172 37.184139251708984 -1.0300006866455078 C 37.264137268066406 -1.1100006103515625 37.31747055053711 -1.1233329772949219 37.344139099121094 -1.0699996948242188 C 37.37080383300781 -1.0699996948242188 37.377471923828125 -1.0366668701171875 37.364139556884766 -0.9699993133544922 C 37.350807189941406 -0.9033336639404297 37.344139099121094 -0.8566665649414062 37.344139099121094 -0.8299999237060547 C 36.93747329711914 0.28333282470703125 36.320804595947266 1.2666664123535156 35.494140625 2.1200008392333984 C 34.66747283935547 2.9733333587646484 33.730804443359375 3.7666664123535156 32.684139251708984 4.5 C 31.64413833618164 5.233333587646484 30.55413818359375 5.926666259765625 29.414138793945312 6.579999923706055 C 28.274139404296875 7.226667404174805 27.18747329711914 7.916666030883789 26.154138565063477 8.649999618530273 C 24.88080596923828 9.516666412353516 23.68747329711914 10.546667098999023 22.574138641357422 11.739999771118164 C 21.467472076416016 12.933333396911621 20.587472915649414 14.263333320617676 19.934139251708984 15.729999542236328 M 21.884140014648438 15.489999771118164 C 21.750804901123047 15.489999771118164 21.567472457885742 15.483333587646484 21.334138870239258 15.470000267028809 C 21.107471466064453 15.456666946411133 20.897472381591797 15.463333129882812 20.704139709472656 15.489999771118164 C 20.810806274414062 15.270000457763672 20.940805435180664 15.053333282470703 21.094139099121094 14.84000015258789 C 21.240806579589844 14.619999885559082 21.384140014648438 14.399999618530273 21.524139404296875 14.180000305175781 C 21.684139251708984 13.966666221618652 21.88080596923828 13.729999542236328 22.114139556884766 13.470000267028809 C 22.340805053710938 13.216666221618652 22.570804595947266 12.986666679382324 22.80413818359375 12.779999732971191 C 23.030805587768555 12.579999923706055 23.23413848876953 12.430000305175781 23.414138793945312 12.329999923706055 C 23.58747100830078 12.236666679382324 23.7008056640625 12.243332862854004 23.754138946533203 12.350000381469727 C 23.780805587768555 12.376667022705078 23.760807037353516 12.446666717529297 23.694137573242188 12.5600004196167 C 23.627471923828125 12.666666984558105 23.54080581665039 12.793333053588867 23.434139251708984 12.9399995803833 C 23.327472686767578 13.09333324432373 23.224140167236328 13.229999542236328 23.12413787841797 13.350000381469727 C 23.030805587768555 13.470000267028809 22.970806121826172 13.5600004196167 22.94413948059082 13.619999885559082 C 22.64413833618164 13.993332862854004 22.427471160888672 14.323333740234375 22.294139862060547 14.609999656677246 C 22.160804748535156 14.896666526794434 22.024139404296875 15.1899995803833 21.884140014648438 15.489999771118164 M 37.46413803100586 26.510000228881836 C 37.410804748535156 26.56333351135254 37.33747100830078 26.56999969482422 37.244140625 26.530000686645508 C 37.15080642700195 26.489999771118164 37.0474739074707 26.44333267211914 36.934139251708984 26.389999389648438 C 36.1474723815918 26.036666870117188 35.410804748535156 25.60333251953125 34.72414016723633 25.09000015258789 C 34.03080749511719 24.56999969482422 33.35747146606445 24.01333236694336 32.704139709472656 23.420000076293945 C 32.057472229003906 22.81999969482422 31.414138793945312 22.203332901000977 30.774139404296875 21.56999969482422 C 30.140804290771484 20.93000030517578 29.497472763061523 20.299999237060547 28.844139099121094 19.68000030517578 C 28.384140014648438 19.246665954589844 27.89413833618164 18.796667098999023 27.37413787841797 18.329999923706055 C 26.86080551147461 17.869998931884766 26.334138870239258 17.44333267211914 25.794139862060547 17.049999237060547 C 25.247472763061523 16.656665802001953 24.684139251708984 16.31999969482422 24.10413932800293 16.040000915527344 C 23.517471313476562 15.75333309173584 22.927471160888672 15.569999694824219 22.334138870239258 15.489999771118164 C 22.68747329711914 14.970000267028809 23.25747299194336 14.386666297912598 24.044139862060547 13.739999771118164 C 24.830806732177734 13.08666706085205 25.684139251708984 12.449999809265137 26.60413932800293 11.829999923706055 C 27.524139404296875 11.203332901000977 28.434139251708984 10.606666564941406 29.334138870239258 10.040000915527344 C 30.22747230529785 9.466667175292969 30.95747184753418 9.003334045410156 31.524139404296875 8.649999618530273 C 32.477474212646484 8.05666732788086 33.434139251708984 7.420000076293945 34.39413833618164 6.739999771118164 C 35.36080551147461 6.059999465942383 36.25080490112305 5.233333587646484 37.06414031982422 4.260000228881836 C 37.14413833618164 4.15333366394043 37.22414016723633 4.113332748413086 37.30413818359375 4.1399993896484375 C 37.30413818359375 4.193332672119141 37.29080581665039 4.239999771118164 37.264137268066406 4.280000686645508 C 37.23747253417969 4.319999694824219 37.22414016723633 4.366666793823242 37.22414016723633 4.420000076293945 C 37.09080505371094 5.100000381469727 36.6908073425293 5.813333511352539 36.024139404296875 6.559999465942383 C 35.35747146606445 7.306667327880859 34.6041374206543 8.016666412353516 33.764137268066406 8.690000534057617 C 32.924137115478516 9.370000839233398 32.070804595947266 10 31.204139709472656 10.579999923706055 C 30.33747100830078 11.166666984558105 29.64413833618164 11.636666297912598 29.12413787841797 11.989999771118164 C 28.63747215270996 12.316666603088379 28.13080596923828 12.626667022705078 27.60413932800293 12.920000076293945 C 27.070804595947266 13.220000267028809 26.534137725830078 13.513333320617676 25.994138717651367 13.800000190734863 C 25.454139709472656 14.08666706085205 24.930805206298828 14.34333324432373 24.42413902282715 14.569999694824219 C 23.92413902282715 14.803333282470703 23.45747184753418 15.013333320617676 23.024139404296875 15.199999809265137 C 23.730804443359375 15.199999809265137 24.537471771240234 15.416666984558105 25.444137573242188 15.850000381469727 C 26.350805282592773 16.28333282470703 27.254138946533203 16.80666732788086 28.154138565063477 17.420000076293945 C 29.04747200012207 18.02666664123535 29.87413787841797 18.663333892822266 30.634140014648438 19.329999923706055 C 31.39413833618164 19.996665954589844 31.977474212646484 20.546667098999023 32.38414001464844 20.979999542236328 C 33.25080490112305 21.926666259765625 34.11080551147461 22.850000381469727 34.96413803100586 23.75 C 35.81747055053711 24.643333435058594 36.570804595947266 25.413333892822266 37.22414016723633 26.059999465942383 C 37.43747329711914 26.280000686645508 37.51747131347656 26.43000030517578 37.46413803100586 26.510000228881836 M 20.78413963317871 -2.3700008392333984 C 21.164138793945312 -1.0699996948242188 21.287471771240234 0.27666664123535156 21.154138565063477 1.6700000762939453 C 21.02080535888672 3.0699996948242188 20.75747299194336 4.503334045410156 20.364139556884766 5.969999313354492 C 19.970806121826172 7.430000305175781 19.52747344970703 8.920000076293945 19.03413963317871 10.440000534057617 C 18.54747200012207 11.960000038146973 18.127471923828125 13.466666221618652 17.774139404296875 14.960000038146973 C 17.560806274414062 15.90666675567627 17.390806198120117 16.89666748046875 17.26413917541504 17.93000030517578 C 17.14413833618164 18.956666946411133 17.10413932800293 19.99333381652832 17.14413833618164 21.040000915527344 C 17.184139251708984 22.086666107177734 17.307472229003906 23.10333251953125 17.51413917541504 24.09000015258789 C 17.71413803100586 25.08333396911621 18.04747200012207 26 18.51413917541504 26.84000015258789 C 18.620805740356445 27.053333282470703 18.660804748535156 27.15999984741211 18.634140014648438 27.15999984741211 C 18.5808048248291 27.15999984741211 18.524139404296875 27.133333206176758 18.46413803100586 27.079999923706055 C 18.410804748535156 27.02666664123535 18.370805740356445 27 18.344139099121094 27 C 17.584138870239258 26.106666564941406 17.0274715423584 25.136667251586914 16.67413902282715 24.09000015258789 C 16.327472686767578 23.043333053588867 16.11080551147461 21.96666717529297 16.024139404296875 20.860000610351562 C 15.94413948059082 19.746665954589844 15.980805397033691 18.619998931884766 16.134138107299805 17.479999542236328 C 16.280805587768555 16.34000015258789 16.47747230529785 15.226666450500488 16.724138259887695 14.140000343322754 C 17.0708065032959 12.65333366394043 17.47747230529785 11.170000076293945 17.94413948059082 9.690000534057617 C 18.404138565063477 8.209999084472656 18.8308048248291 6.773332595825195 19.224140167236328 5.379999160766602 C 19.61747169494629 3.979999542236328 19.947471618652344 2.6299991607666016 20.21413803100586 1.3299999237060547 C 20.487472534179688 0.030000686645507812 20.61080551147461 -1.2166671752929688 20.584138870239258 -2.4099998474121094 C 20.584138870239258 -2.5766658782958984 20.59747314453125 -2.6599998474121094 20.62413787841797 -2.6599998474121094 C 20.650806427001953 -2.686666488647461 20.684139251708984 -2.6533336639404297 20.724140167236328 -2.559999465942383 C 20.76413917541504 -2.4599990844726562 20.78413963317871 -2.39666748046875 20.78413963317871 -2.3700008392333984 M 40.03413772583008 27.809999465942383 C 40.03413772583008 27.8700008392334 40.00747299194336 27.913333892822266 39.954139709472656 27.940000534057617 C 39.89413833618164 27.96666717529297 39.83747100830078 27.99333381652832 39.78413772583008 28.020000457763672 C 38.75747299194336 28.399999618530273 37.760807037353516 28.56999969482422 36.79413986206055 28.530000686645508 C 35.83414077758789 28.483333587646484 34.90080642700195 28.31999969482422 33.994140625 28.040000915527344 C 33.080806732177734 27.753334045410156 32.2108039855957 27.3799991607666 31.384140014648438 26.920000076293945 C 30.557472229003906 26.459999084472656 29.77747344970703 26 29.044139862060547 25.540000915527344 C 28.310806274414062 25.073333740234375 27.607471466064453 24.543333053588867 26.934139251708984 23.950000762939453 C 26.254138946533203 23.350000381469727 25.58747100830078 22.739999771118164 24.934139251708984 22.119998931884766 C 24.287471771240234 21.49333381652832 23.64413833618164 20.883333206176758 23.004138946533203 20.290000915527344 C 22.364139556884766 19.690000534057617 21.73413848876953 19.15999984741211 21.114139556884766 18.700000762939453 L 19.85413932800293 22.93000030517578 C 19.800806045532227 23.06999969482422 19.754138946533203 23.19333267211914 19.71413803100586 23.299999237060547 C 19.66747283935547 23.406665802001953 19.61747169494629 23.446666717529297 19.564138412475586 23.420000076293945 C 19.510805130004883 23.393333435058594 19.47747230529785 23.31999969482422 19.46413803100586 23.200000762939453 C 19.4508056640625 23.073333740234375 19.44413948059082 22.94333267211914 19.44413948059082 22.809999465942383 C 19.470806121826172 22.023334503173828 19.537471771240234 21.22333335876465 19.64413833618164 20.40999984741211 C 19.75747299194336 19.59666633605957 19.89413833618164 18.78333282470703 20.05413818359375 17.970001220703125 C 19.89413833618164 17.86333465576172 19.690805435180664 17.739999771118164 19.44413948059082 17.600000381469727 C 19.197471618652344 17.46666717529297 18.967472076416016 17.333332061767578 18.754138946533203 17.200000762939453 C 18.7008056640625 17.166667938232422 18.634140014648438 17.116666793823242 18.55413818359375 17.049999237060547 C 18.467472076416016 16.983333587646484 18.43747329711914 16.92333221435547 18.46413803100586 16.869998931884766 C 18.46413803100586 16.843334197998047 18.53413963317871 16.829999923706055 18.67413902282715 16.829999923706055 C 19.647472381591797 16.90999984741211 20.60413932800293 17.229999542236328 21.544139862060547 17.790000915527344 C 22.47747230529785 18.343334197998047 23.410804748535156 19.00666618347168 24.344139099121094 19.780000686645508 C 25.284137725830078 20.553333282470703 26.22747230529785 21.386667251586914 27.17413902282715 22.280000686645508 C 28.120805740356445 23.1733341217041 29.11080551147461 24.02666664123535 30.14413833618164 24.84000015258789 C 31.444137573242188 25.84666633605957 32.93747329711914 26.639999389648438 34.62413787841797 27.219999313354492 C 36.30413818359375 27.80666732788086 38.010807037353516 27.989999771118164 39.744140625 27.770000457763672 C 39.93747329711914 27.71666717529297 40.03413772583008 27.729999542236328 40.03413772583008 27.809999465942383 M 19.774139404296875 27.15999984741211 C 19.720806121826172 27.15999984741211 19.63747215270996 27.133333206176758 19.524139404296875 27.079999923706055 C 19.470806121826172 27.053333282470703 19.430805206298828 27.013334274291992 19.404138565063477 26.959999084472656 C 19.050806045532227 26.553333282470703 18.774139404296875 26.1733341217041 18.574138641357422 25.81999969482422 C 18.36747169494629 25.46666717529297 18.197471618652344 24.89666748046875 18.064138412475586 24.110000610351562 C 18.010805130004883 23.809999465942383 17.97747230529785 23.43000030517578 17.96413803100586 22.969999313354492 C 17.9508056640625 22.510000228881836 17.95747184753418 22.06333351135254 17.98413848876953 21.630001068115234 C 18.010805130004883 21.196666717529297 18.057472229003906 20.829999923706055 18.1241397857666 20.530000686645508 C 18.190805435180664 20.229999542236328 18.2774715423584 20.079999923706055 18.384140014648438 20.079999923706055 C 18.410804748535156 20.079999923706055 18.44413948059082 20.149999618530273 18.48413848876953 20.290000915527344 C 18.530805587768555 20.42333221435547 18.567472457885742 20.579999923706055 18.594139099121094 20.760000228881836 C 18.620805740356445 20.933334350585938 18.640806198120117 21.106666564941406 18.654138565063477 21.280000686645508 C 18.66747283935547 21.459999084472656 18.67413902282715 21.57666778564453 18.67413902282715 21.630001068115234 C 18.72747230529785 22.22333335876465 18.774139404296875 22.709999084472656 18.814138412475586 23.09000015258789 C 18.85413932800293 23.469999313354492 18.900806427001953 23.809999465942383 18.954139709472656 24.110000610351562 C 19.094139099121094 24.976667404174805 19.36747169494629 25.886667251586914 19.774139404296875 26.84000015258789 C 19.800806045532227 26.893333435058594 19.820804595947266 26.959999084472656 19.834138870239258 27.040000915527344 C 19.84747314453125 27.1200008392334 19.827472686767578 27.15999984741211 19.774139404296875 27.15999984741211 M 34.494140625 26.350000381469727 C 34.68747329711914 26.376667022705078 34.92747116088867 26.4233341217041 35.21413803100586 26.489999771118164 C 35.494140625 26.55666732788086 35.717472076416016 26.616666793823242 35.88414001464844 26.670000076293945 C 36.58414077758789 26.863332748413086 37.174137115478516 27.00666618347168 37.65414047241211 27.100000381469727 C 38.127471923828125 27.19333267211914 38.68747329711914 27.253334045410156 39.33414077758789 27.280000686645508 C 39.39413833618164 27.280000686645508 39.47080612182617 27.280000686645508 39.56414031982422 27.280000686645508 C 39.657470703125 27.280000686645508 39.704139709472656 27.309999465942383 39.704139709472656 27.3700008392334 C 39.704139709472656 27.476667404174805 39.56747055053711 27.543333053588867 39.29413986206055 27.56999969482422 C 38.97414016723633 27.623332977294922 38.6908073425293 27.649999618530273 38.44413757324219 27.649999618530273 C 38.197471618652344 27.649999618530273 37.88414001464844 27.636667251586914 37.5041389465332 27.610000610351562 C 37.29080581665039 27.58333396911621 37.03413772583008 27.543333053588867 36.73413848876953 27.489999771118164 C 36.434139251708984 27.43666648864746 36.137474060058594 27.360000610351562 35.844139099121094 27.260000228881836 C 35.54413986206055 27.16666603088379 35.264137268066406 27.073333740234375 35.0041389465332 26.979999542236328 C 34.75080490112305 26.886667251586914 34.56747055053711 26.78333282470703 34.454139709472656 26.670000076293945 C 34.34747314453125 26.56333351135254 34.307472229003906 26.469999313354492 34.33414077758789 26.389999389648438 C 34.33414077758789 26.363332748413086 34.387474060058594 26.350000381469727 34.494140625 26.350000381469727 Z" transform="matrix(1.4502427577972412, 0, 0, 1.4502427577972412, 3.9671037197113037, 17.724746704101562)" style="fill: rgb(255, 255, 255); white-space: pre; color: rgb(255, 255, 255); stroke: rgb(243, 214, 255); -webkit-text-stroke: rgb(243, 214, 255); fill-opacity: 0;" />
</svg>
